<?xml version="1.0" encoding="iso-8859-1"?>
<!-- Uploaded to: SVG Repo, www.svgrepo.com, Generator: SVG Repo Mixer Tools -->
<svg height="800px" width="800px" version="1.1" id="Layer_1" xmlns="http://www.w3.org/2000/svg" xmlns:xlink="http://www.w3.org/1999/xlink" 
	 viewBox="0 0 392.533 392.533" xml:space="preserve">
<path style="fill:#194F82;" d="M359.822,61.802h-24.113V32.711C335.709,14.675,321.034,0,302.998,0H32.711
	C14.675,0,0,14.675,0,32.711v79.968c0,8.339,3.168,15.968,8.404,21.786C3.168,140.283,0,147.911,0,156.315v79.968
	c0,8.339,3.168,15.968,8.404,21.786C3.168,263.887,0,271.451,0,279.855v79.968c0,18.036,14.675,32.711,32.711,32.711h270.287
	c18.036,0,32.711-14.675,32.711-32.711v-29.091h24.113c18.036,0,32.711-14.675,32.711-32.711V94.513
	C392.533,76.477,377.859,61.802,359.822,61.802z M313.923,359.822c0,6.012-4.848,10.925-10.925,10.925H32.711
	c-6.012,0-10.925-4.848-10.925-10.925v-79.968c0-6.012,4.848-10.925,10.925-10.925h270.287c6.012,0,10.925,4.849,10.925,10.925
	V359.822L313.923,359.822z M21.786,32.711c0-6.012,4.848-10.925,10.925-10.925h270.287c6.012,0,10.925,4.848,10.925,10.925v79.968
	c0,6.012-4.848,10.925-10.925,10.925H32.711c-6.012,0-10.925-4.848-10.925-10.925V32.711z M313.923,236.218
	c0,6.012-4.848,10.925-10.925,10.925H32.711c-6.012,0-10.925-4.848-10.925-10.925v-79.903c0-6.012,4.848-10.925,10.925-10.925
	h270.287c6.012,0,10.925,4.848,10.925,10.925V236.218L313.923,236.218L313.923,236.218z M370.747,298.02
	c0,6.012-4.848,10.925-10.925,10.925h-24.113v-29.026c0-8.339-3.168-15.968-8.404-21.786c5.172-5.818,8.404-13.446,8.404-21.786
	v-29.091h34.974L370.747,298.02L370.747,298.02z M370.747,185.341h-34.974v-29.026c0-8.339-3.168-15.968-8.404-21.786
	c5.172-5.818,8.404-13.446,8.404-21.786V83.717h24.048c6.012,0,10.925,4.848,10.925,10.925V185.341L370.747,185.341z"/>
<path style="fill:#FFC10D;" d="M32.711,123.539h270.287c6.012,0,10.925-4.848,10.925-10.925V32.711
	c0-6.012-4.848-10.925-10.925-10.925H32.711c-6.012,0-10.925,4.848-10.925,10.925v79.968
	C21.786,118.691,26.699,123.539,32.711,123.539z"/>
<path style="fill:#56ACE0;" d="M302.998,145.325H32.711c-6.012,0-10.925,4.848-10.925,10.925v79.968
	c0,6.012,4.848,10.925,10.925,10.925h270.287c6.012,0,10.925-4.848,10.925-10.925v-79.903
	C313.923,150.303,309.01,145.325,302.998,145.325z"/>
<path style="fill:#FFC10D;" d="M302.998,268.994H32.711c-6.012,0-10.925,4.849-10.925,10.925v79.903
	c0,6.012,4.848,10.925,10.925,10.925h270.287c6.012,0,10.925-4.848,10.925-10.925v-79.968
	C313.923,273.842,309.01,268.994,302.998,268.994z"/>
<g>
	<path style="fill:#194F82;" d="M55.919,100.461c6.012,0,10.925-4.848,10.925-10.925V55.855c0-6.012-4.848-10.925-10.925-10.925
		s-10.925,4.848-10.925,10.925v33.681C45.059,95.612,49.907,100.461,55.919,100.461z"/>
	<path style="fill:#194F82;" d="M102.141,100.461c6.012,0,10.925-4.848,10.925-10.925V55.855c0-6.012-4.848-10.925-10.925-10.925
		c-6.077,0-10.925,4.848-10.925,10.925v33.681C91.281,95.612,96.129,100.461,102.141,100.461z"/>
	<path style="fill:#194F82;" d="M219.992,83.588h59.733c6.012,0,10.925-4.848,10.925-10.925c0-6.077-4.848-10.925-10.925-10.925
		h-59.798c-6.012,0-10.925,4.848-10.925,10.925C209.067,78.739,213.98,83.588,219.992,83.588z"/>
	<path style="fill:#194F82;" d="M55.919,168.533c-6.012,0-10.925,4.848-10.925,10.925v33.681c0,6.012,4.848,10.925,10.925,10.925
		s10.925-4.848,10.925-10.925v-33.681C66.844,173.382,61.996,168.533,55.919,168.533z"/>
	<path style="fill:#194F82;" d="M102.141,168.533c-6.012,0-10.925,4.848-10.925,10.925v33.681c0,6.012,4.848,10.925,10.925,10.925
		c6.012,0,10.925-4.848,10.925-10.925v-33.681C113.067,173.382,108.154,168.533,102.141,168.533z"/>
	<path style="fill:#194F82;" d="M279.725,185.341h-59.798c-6.012,0-10.925,4.848-10.925,10.925c0,6.012,4.848,10.925,10.925,10.925
		h59.798c6.012,0,10.925-4.848,10.925-10.925C290.715,190.255,285.737,185.341,279.725,185.341z"/>
	<path style="fill:#194F82;" d="M55.919,292.073c-6.012,0-10.925,4.848-10.925,10.925v33.681c0,6.012,4.848,10.925,10.925,10.925
		s10.925-4.848,10.925-10.925v-33.681C66.844,296.921,61.996,292.073,55.919,292.073z"/>
	<path style="fill:#194F82;" d="M102.141,292.073c-6.012,0-10.925,4.848-10.925,10.925v33.681c0,6.012,4.848,10.925,10.925,10.925
		c6.012,0,10.925-4.848,10.925-10.925v-33.681C113.067,296.921,108.154,292.073,102.141,292.073z"/>
	<path style="fill:#194F82;" d="M279.725,308.945h-59.798c-6.012,0-10.925,4.849-10.925,10.925s4.848,10.925,10.925,10.925h59.798
		c6.012,0,10.925-4.848,10.925-10.925C290.715,313.794,285.737,308.945,279.725,308.945z"/>
</g>
</svg>