<?xml version="1.0" encoding="iso-8859-1"?>
<!-- Uploaded to: SVG Repo, www.svgrepo.com, Generator: SVG Repo Mixer Tools -->
<svg height="800px" width="800px" version="1.1" id="Layer_1" xmlns="http://www.w3.org/2000/svg" xmlns:xlink="http://www.w3.org/1999/xlink" 
	 viewBox="0 0 392.533 392.533" xml:space="preserve">
<path style="fill:#FFFFFF;" d="M84.364,233.309h232.663c29.285,0,53.075-23.79,53.075-53.075c0-23.725-15.968-44.735-38.853-51.071
	c-5.56-1.552-9.051-7.046-8.016-12.735c0.646-3.297,0.84-6.4,0.84-9.374c0-29.285-23.79-53.075-53.075-53.075
	c-12.283,0-24.372,4.331-33.875,12.154c-2.715,2.263-6.206,3.103-9.568,2.327c-3.362-0.776-6.206-3.038-7.628-6.206
	c-11.313-24.178-35.749-39.822-62.384-39.822c-37.947,0-68.848,30.901-68.848,68.848c0,2.069,2.133,10.667-2.263,14.352
	c-2.263,1.939-4.655,3.685-7.564,3.943c-29.996,1.681-57.277,29.543-56.501,61.737C21.915,201.115,47.257,232.727,84.364,233.309z"
	/>
<g>
	<path style="fill:#FFC10D;" d="M77.317,333.447c-10.149,0-18.295,8.275-18.295,18.295c0,10.149,8.21,18.295,18.295,18.295
		s18.295-8.275,18.295-18.295C95.741,341.721,87.467,333.447,77.317,333.447z"/>
	<path style="fill:#FFC10D;" d="M315.216,370.101c10.15,0,18.295-8.275,18.295-18.295c0-10.15-8.21-18.295-18.295-18.295
		c-10.085,0-18.295,8.275-18.295,18.295C296.792,361.956,305.067,370.101,315.216,370.101z"/>
</g>
<path style="fill:#194F82;" d="M317.026,255.677c41.632,0,75.507-33.875,75.507-75.507c0-30.513-18.554-57.794-46.158-69.495
	c0.065-1.228,0.065-2.457,0.065-3.685c0-41.632-33.875-75.507-75.507-75.507c-13.059,0-25.859,3.426-37.172,9.826
	C217.083,15.838,188.38,0,157.479,0C107.96,0,67.556,39.628,66.327,88.889C27.863,97.099,0,130.909,0,171.313
	c0,46.545,37.883,84.364,84.364,84.364h100.655v84.945h-68.525c-4.848-17.002-20.558-29.543-39.176-29.543
	c-22.497,0-40.727,18.295-40.727,40.727c0,22.497,18.295,40.727,40.727,40.727c18.554,0,34.263-12.541,39.176-29.543H276.04
	c4.848,17.002,20.558,29.543,39.176,29.543c22.497,0,40.727-18.295,40.727-40.727c0-22.497-18.295-40.727-40.727-40.727
	c-18.554,0-34.263,12.541-39.176,29.543h-68.525v-84.945H317.026z M77.317,370.101c-10.149,0-18.295-8.275-18.295-18.295
	c0-10.15,8.21-18.295,18.295-18.295s18.295,8.275,18.295,18.295C95.741,361.956,87.467,370.101,77.317,370.101z M315.216,333.447
	c10.15,0,18.295,8.275,18.295,18.295c0,10.149-8.21,18.295-18.295,18.295c-10.085,0-18.295-8.275-18.295-18.295
	C296.792,341.721,305.067,333.447,315.216,333.447z M78.869,109.64c2.909-0.259,5.301-2.004,7.564-3.943
	c4.396-3.685,2.263-12.283,2.263-14.352c0-37.947,30.901-68.848,68.848-68.848c26.57,0,51.071,15.58,62.384,39.822
	c1.487,3.168,4.331,5.43,7.628,6.206c3.426,0.776,6.982-0.065,9.568-2.327c9.503-7.822,21.463-12.154,33.875-12.154
	c29.285,0,53.075,23.79,53.075,53.075c0,2.909-0.323,6.012-0.84,9.374c-1.034,5.689,2.457,11.184,8.016,12.735
	c22.885,6.335,38.853,27.345,38.853,51.071c0,29.285-23.79,53.075-53.075,53.075H84.364c-37.107-0.517-62.448-32.129-61.996-61.996
	C21.657,139.055,48.937,111.257,78.869,109.64z"/>
<path style="fill:#56ACE0;" d="M325.236,150.691L325.236,150.691c-16.679-4.655-27.152-21.204-24.113-38.271l0,0
	c0.388-2.004,0.517-3.814,0.517-5.43c0-16.937-13.77-30.707-30.707-30.707c-9.115,0-15.709,3.814-19.523,7.046
	c-16.937,14.028-42.537,8.275-51.846-11.636l0,0C192,55.337,175.451,44.8,157.543,44.8c-25.665,0-46.416,20.881-46.416,46.416
	c0,0.323,0.129,1.939,0.323,4.461c1.487,18.424-12.154,34.586-30.578,36.202h-0.065c-4.784,0.388-9.244,1.745-13.446,3.685h49.519
	c6.271,0,11.636,5.107,11.507,11.378c-0.129,6.077-5.107,10.99-11.184,10.99H47.127c-1.552,4.202-2.392,8.663-2.392,13.317
	c0,2.715,0.323,5.301,0.776,7.887h32.646c6.271,0,11.636,5.107,11.507,11.378c-0.129,6.077-5.107,10.99-11.184,10.99H58.958
	c6.853,5.818,15.774,9.244,25.406,9.244h232.663c16.937,0,30.707-13.77,30.707-30.707
	C347.733,166.529,338.554,154.376,325.236,150.691z"/>
<g>
	<path style="fill:#194F82;" d="M147.265,179.911h-8.016c-6.206,0-11.184-5.042-11.184-11.184c0-6.141,5.042-11.184,11.184-11.184
		h8.016c6.206,0,11.184,5.042,11.184,11.184C158.449,174.869,153.471,179.911,147.265,179.911z"/>
	<path style="fill:#194F82;" d="M200.275,179.911h-8.016c-6.206,0-11.184-5.042-11.184-11.184c0-6.141,5.042-11.184,11.184-11.184
		h8.016c6.206,0,11.184,5.042,11.184,11.184C211.459,174.869,206.481,179.911,200.275,179.911z"/>
	<path style="fill:#194F82;" d="M253.22,179.911h-8.016c-6.206,0-11.184-5.042-11.184-11.184c0-6.141,5.042-11.184,11.184-11.184
		h8.016c6.206,0,11.184,5.042,11.184,11.184C264.404,174.869,259.426,179.911,253.22,179.911z"/>
</g>
</svg>